ooooo   ooooo oooooooooo.   ooooo         o8o  ooooooooooooo oooooooooooo
`888'   `888' `888'   `Y8b  `888'         `"'  8'   888   `8 `888'     `8
888     888   888      888  888         oooo       888       888
888ooooo888   888      888  888         `888       888       888oooo8
888     888   888      888  888          888       888       888    "
888     888   888     d88'  888       o  888       888       888       o
o888o   o888o o888bood8P'   o888ooooood8 o888o     o888o     o888ooooood8

PRESENTS:

Paul.2011.EXTENDED.720p.BRRip.x264.AC3.dxva-HDLiTE

Encoded By                       : Lifechanger
Source                           : EXTENDED.1080p.BluRay.X264-AVCHD
IMDB                             :  http://www.imdb.com/title/tt1092026/

General
Format                           : Matroska
File size                        : 2.29 GiB
Duration                         : 1h 49mn
Overall bit rate                 : 3 003 Kbps
Encoded date                     : UTC 2011-06-11 01:39:48

Video
ID                               : 1
Format                           : AVC
Format/Info                      : Advanced Video Codec
Format profile                   : High@L4.1
Format settings, CABAC           : Yes
Format settings, ReFrames        : 5 frames
Codec ID                         : V_MPEG4/ISO/AVC
Duration                         : 1h 49mn
Bit rate                         : 2 560 Kbps
Width                            : 1 280 pixels
Height                           : 544 pixels
Display aspect ratio             : 2.35:1
Frame rate                       : 23.976 fps
Color space                      : YUV
Chroma subsampling               : 4:2:0
Bit depth                        : 8 bits
Scan type                        : Progressive
Bits/(Pixel*Frame)               : 0.153
Stream size                      : 1.90 GiB (83%)
Writing library                  : x264 core 114 r1913 5fd3dce
Language                         : English

Audio
ID                               : 2
Format                           : AC-3
Format/Info                      : Audio Coding 3
Mode extension                   : CM (complete main)
Codec ID                         : A_AC3
Duration                         : 1h 49mn
Bit rate mode                    : Constant
Bit rate                         : 448 Kbps
Channel(s)                       : 6 channels
Channel positions                : Front: L C R, Side: L R, LFE
Sampling rate                    : 48.0 KHz
Bit depth                        : 16 bits
Compression mode                 : Lossy
Stream size                      : 350 MiB (15%)
Language                         : English

Subtitles           : Ro